<svg id="Layer_1" data-name="Layer 1" xmlns="http://www.w3.org/2000/svg" viewBox="0 0 23 25"><defs><style>.cls-1{fill:#fafafa}</style></defs><g id="Gruppe_12" data-name="Gruppe 12"><path class="cls-1" d="M3 18a1 1 0 01-1-1V3a1 1 0 011-1h13a1 1 0 011 1h2a3 3 0 00-3-3H3a3 3 0 00-3 3v14a3 3 0 003 3z"/><path class="cls-1" d="M20 25H8a3 3 0 01-3-3V8a3 3 0 013-3h12a3 3 0 013 3v14a3 3 0 01-3 3zM8 7a1 1 0 00-1 1v14a1 1 0 001 1h12a1 1 0 001-1V8a1 1 0 00-1-1z" id="Rechteck_4" data-name="Rechteck 4"/></g></svg>